<svg xmlns="http://www.w3.org/2000/svg" viewBox="0 0 38 38"><title>back ico</title><g id="Capa_2" data-name="Capa 2"><g id="Capa_1-2" data-name="Capa 1"><path d="M28.08,17.9h-16l5.15-5.15a.36.36,0,0,0,0-.52l-.83-.83a.37.37,0,0,0-.52,0L9,18.28a.47.47,0,0,0,0,.65l6.89,7.37a.37.37,0,0,0,.52,0l.86-.8a.37.37,0,0,0,0-.52l-4.84-5.19H28.08a.42.42,0,0,0,.42-.42V18.32A.42.42,0,0,0,28.08,17.9Z"/><path d="M19,38A19,19,0,1,1,38,19,19,19,0,0,1,19,38ZM19,2.38A16.62,16.62,0,1,0,35.63,19,16.63,16.63,0,0,0,19,2.38Z"/></g></g></svg>