<svg xmlns="http://www.w3.org/2000/svg" viewBox="0 0 34 34"><title>instagram ico</title><g id="Capa_2" data-name="Capa 2"><g id="Capa_1-2" data-name="Capa 1"><path d="M25,0H9A9.08,9.08,0,0,0,0,9.15v15.7A9.08,9.08,0,0,0,9,34H25a9.08,9.08,0,0,0,9-9.15V9.15A9.08,9.08,0,0,0,25,0ZM31,24.62A6.3,6.3,0,0,1,24.75,31H9.25A6.3,6.3,0,0,1,3,24.62V9.38A6.3,6.3,0,0,1,9.25,3h15.5A6.3,6.3,0,0,1,31,9.38Z"/><path d="M17,8.27A8.64,8.64,0,0,0,8.45,17,8.64,8.64,0,0,0,17,25.73,8.64,8.64,0,0,0,25.55,17,8.64,8.64,0,0,0,17,8.27Zm0,14.36A5.63,5.63,0,1,1,22.51,17,5.57,5.57,0,0,1,17,22.63Z"/><ellipse cx="26.01" cy="7.8" rx="1.93" ry="1.97"/></g></g></svg>