<svg xmlns="http://www.w3.org/2000/svg" viewBox="0 0 1359.89 1217.57"><defs><style>.cls-1{fill:#3eab37;}.cls-2{fill:#223362;}.cls-3{fill:#b3b2b2;}</style></defs><title>AEIMEC fullcolor</title><g id="Capa_2" data-name="Capa 2"><g id="Capa_1-2" data-name="Capa 1"><path d="M642,929.71h64.62L773,1110h2.19l66.4-180.88c18.67,2.66,35.54,7.14,49.49,19,10.75,9.13,15.52,21.19,15.55,35.17q0,34.26,0,68.51,0,76.25-.05,152.49c0,4,.86,8-1.32,13-11.61,0-23.58.72-36.18-.68V966.3l-2.09-.54c-11.7,30.07-21.84,60.73-33,91s-21.94,60.75-33,91.48H747.36c-22.91-60.84-44-122.63-68.21-183.6v251.83c-12.83,1.65-24.84.78-36.21.63-3.66-3.1-2.84-6.63-2.84-9.82q-.08-134.25,0-268.51C640.08,935.87,639.58,932.83,642,929.71Z"/><path d="M1117.51,1048.72c1.81,11.43.78,21.9.76,31.82-4.71,2.92-8.87,2-12.83,2-27.62.09-55.24,0-82.86.1a129.66,129.66,0,0,0-18.71,1.12c-11.75,1.75-19.25,8.76-19.55,20.39-.66,25.31-.2,50.65-.2,77.5,47.28.31,94.15-.09,141.4.23,2,12.12,1,23,1,33.6-9.91,2.65-172.29,2.61-181.15.17-1.4-3.16-.8-6.52-.81-9.79,0-31.66,0-63.32-.08-95a77.84,77.84,0,0,1,3-21.78c5.87-20.46,21-31.15,40.23-37.21,6.69-2.1,13.47-3.71,20.55-3.7q51.38,0,102.75,0C1112.79,1048.18,1114.6,1048.47,1117.51,1048.72Z"/><path d="M514.69,1049.42c1.12,10.56.51,20.77.44,31-3.77,3.17-8,2.1-11.83,2.12-28.37.09-56.75,0-85.12.1a113.62,113.62,0,0,0-17.6,1.14c-11,1.78-17.59,8.59-19.42,19.57a61.71,61.71,0,0,0-.7,9.9q-.09,30.38,0,60.77c0,2.15-.5,4.44,2,7.76H523.21c1,12.19.46,23,.49,33.7-8.56,2.3-166.75,2.92-180.48.9-2.69-3.13-1.56-7-1.57-10.53-.09-31.3.27-62.62-.14-93.92-.52-39.64,23-60.63,60.55-63.14,36.31-2.43,72.91-.5,109.39-.44C512.13,1048.32,512.81,1048.76,514.69,1049.42Z"/><path d="M256.33,1113c-7.83-4.6-14.88-9.66-22.75-13.4a163.38,163.38,0,0,0-24.36-8.83L161,962.15c-16.82,45.22-32.75,88-48.94,131.53-14.66,3.73-28.35,9.76-40.36,20,19.88-61.34,41.63-121.87,63.14-183.1H190C213.83,990.41,233.79,1052.05,256.33,1113Z"/><path d="M71.75,1216.7H36.81a3.59,3.59,0,0,1-1.25-4.23c6-20.46,12.09-40.88,22.1-59.84,6.42-12.14,14.59-23,25.5-31.49,13.68-10.69,29-17.43,46.57-17.67,22.44-.3,45-1.89,67.3,0,34.25,2.85,60.82,19.57,75.07,51.74,8.6,19.39,14.95,39.79,22.61,60.55-6.89,2.88-13.5,1.32-19.86,1.59s-12.46,0-18.84,0c-5.46-8.55-7.65-17.9-11.15-26.68-2.44-6.13-4.12-12.61-6.89-18.58-9.86-21.17-26.14-33.26-50-33.62-17.3-.26-34.61.22-51.9-.13-19.16-.38-33,8.46-43.41,23.73-8.61,12.63-13,27.06-17.32,41.5C74.1,1207.76,73,1212,71.75,1216.7Z"/><path d="M564,930.59a47.31,47.31,0,0,1,22.71,6.49c9.79,5.46,14.92,13.75,14.87,25.18-.1,21.33,0,42.67,0,64q0,88.85,0,177.67c0,4,.72,8.08-1.1,12.81-11.71,1.27-23.74.43-35,.55-1-1-1.26-1.22-1.49-1.51a2.26,2.26,0,0,1-.56-.91,43.64,43.64,0,0,1-.57-5.44q0-137.39.13-274.77C562.84,933.61,563.39,932.57,564,930.59Z"/><path d="M1358.87,1183.85v31.21c-1.42,2.21-3.69,2.29-5.87,2.26-29.09-.39-58.19,1.06-87.26-.84-59.11-3.85-87.12-44-95.74-86.84-4.45-22.09-4.91-44.58-4.33-67.06a25.77,25.77,0,0,1,.79-4.17c19.18,2.18,36.27,19.38,38.66,39.65,1.7,14.39,5,28.18,11,41.38,12.35,27.44,39.43,44.57,69.71,43.08,20.62-1,41.22-.57,61.83-.74C1351.2,1181.75,1355,1180.86,1358.87,1183.85Z"/><path d="M380.47,963.87v73c-13.38,8.1-28.82,13.45-38.13,27.74V931.73c7.94-2.53,170-2.87,180.74-.3,1.51,6.72.45,13.71.66,20.62.1,3.6-.28,7.21-.49,11.82Z"/><path d="M944.94,1065.67V931.76c8.11-2.4,160.65-3.33,181.14-1.07,1.14,10.57.75,21.35.1,33.31H983.93v72.6C969.66,1045.17,953.79,1050.65,944.94,1065.67Z"/><path d="M1359.35,931.23c-.1,10.86,1,21.39-.68,31.61-4.07,2.15-7.81,1.28-11.4,1.3-18.42.1-36.84.07-55.26,0a111.87,111.87,0,0,0-29.46,3.74c-24.27,6.53-40.25,21.87-49,45.21-6.1,16.34-9.22,33.24-9.63,52.61-10.91-11.2-21-21-35.61-23.47-2-9.11-.52-17.38,1.32-25.55,4.77-21.17,13.61-40.4,28.59-56.38,16.61-17.72,37.66-26.94,61.45-29.21,31.58-3,63.3-.93,95-1.19C1355.71,929.94,1356.75,930.5,1359.35,931.23Z"/><path class="cls-1" d="M581.61,388c.4-11.62,8.12-18.85,20-18.67A19.32,19.32,0,0,1,621,390c-.53,11.16-9.08,19.25-20.1,19C589.73,408.81,581.22,399.55,581.61,388Z"/><path class="cls-1" d="M699.84,329.36a19.69,19.69,0,0,1-20.29,20c-10.43-.31-19.45-9.64-19.44-20.1,0-11.42,7.79-19.34,19.25-19.59C691,309.39,699.81,317.88,699.84,329.36Z"/><path class="cls-1" d="M758.92,369.33c11.53.14,19.8,8.92,19.45,20.62-.35,11.22-8.83,19.32-20,19.07a20.32,20.32,0,0,1-19.65-19.85C738.57,377.42,746.93,369.19,758.92,369.33Z"/><path class="cls-1" d="M268.12,387a19.65,19.65,0,0,1-19.3-20c0-11.44,9.06-19.86,20.82-19.4,11.07.44,19,9.09,18.64,20.41A19.24,19.24,0,0,1,268.12,387Z"/><path class="cls-1" d="M353.89,446.73a19.45,19.45,0,0,1,19.34-19.59,19.87,19.87,0,0,1,.6,39.74C362.6,467.06,353.82,458.19,353.89,446.73Z"/><path class="cls-1" d="M1119.9,367.48a19.87,19.87,0,0,1-39.74-.55c.15-11.37,9.09-19.75,20.67-19.37A19.47,19.47,0,0,1,1119.9,367.48Z"/><path class="cls-1" d="M1005.66,447.22a20.18,20.18,0,0,1-20.76,19.66c-10.82-.43-19-9.1-18.93-20.12a19.27,19.27,0,0,1,19.29-19.63C996.29,427,1005.8,436.37,1005.66,447.22Z"/><path class="cls-2" d="M1359.64,598.75c-.22-9.47-5.4-16.66-13.75-21.24a95.31,95.31,0,0,0-10.08-4.43c-49-19.92-98-40-147.16-59.6-11.06-4.41-18.21-11.42-22.52-22.48-6.26-16.09-13-32-20.35-47.65-5.21-11.12-5.32-21.3-.55-32.79,12.68-30.53,24.38-61.47,36.48-92.25,1-2.57,2.37-5.07,2-8.69h-12.67c-102.38,0-204.76.15-307.14-.16-16.45,0-22.89,1.92-22.78,23.39.27,58.17.09,116.34.09,174.51v7.3A218.18,218.18,0,0,1,898.88,658c27.91,2,452.67,1.25,460.9-.91C1359.78,637.72,1360.09,618.23,1359.64,598.75ZM1120.05,396.16a34,34,0,0,1-43.6-3,39,39,0,0,1-6.44-7.51c-4.78-7.72-11.83-10.6-20.52-10.57-10.31,0-20.62,0-30.93,0H921.37c-4.43,0-8.94-.19-13,1.78-7.54,3.64-12.08,9.62-12.38,18.14-.28,7.72-.29,15.46,0,23.18.39,11.71,7.16,19.55,18.77,20.72A156.89,156.89,0,0,0,939,439c7.94-.43,13.07-5.28,17.65-11.67,12.1-16.92,31.93-20.64,48.48-9.55,11.73,7.86,17.34,19.21,15.63,33.05-1.88,15.17-10.68,25.65-25.57,30.09-13.65,4.08-25.36,0-35.22-9.88a24.65,24.65,0,0,1-4.07-5.21c-4.7-8.39-12.33-11.1-21.31-11.19-8.83-.08-17.67.07-26.51-.05-18.35-.25-27.75-9.67-27.93-28q-.18-19.32,0-38.64c.17-18.46,10.08-28.64,28.74-28.87,23.56-.29,47.12-.07,70.69-.07,22.45,0,44.93-.45,67.37.19,11.17.32,18.35-3.84,24.94-12.72,16.26-21.91,48.17-18.6,60,5.62C1139.33,367.32,1134.37,385.82,1120.05,396.16Z"/><path class="cls-2" d="M1195.75,226.21c-24.35-23-48.55-46.21-72.13-70-11.93-12-24-14.59-39.82-8.19-49.75,20.18-99.88,39.41-149.71,59.38-11,4.39-21,4.76-31.92,0-16.5-7.23-33.21-14.1-50.2-20.09-12.06-4.25-19.4-11.9-24.6-23.38-21.7-47.9-44.2-95.43-65.84-143.35C755.13,6.37,745.79-.27,730,0q-53,.92-106.11,0C608.07-.21,598.6,6.35,592.5,20.75,572.28,68.47,551.18,115.82,531,163.56c-5.09,12.06-12.42,20.13-24.88,24.54C489.5,194,473,200.43,456.94,207.65c-11.26,5-21.5,4.71-32.89.42-50.94-19.16-102.15-37.58-153.12-56.65-14.88-5.57-27.05-3.27-38,8.36-8.59,9.09-18,17.39-27,26.08q-23.87,23-47.69,46c-7.41,7.13-11.57,15.8-9,25.85,3.29,12.72,9.13,24.58,14.92,36.43H498.77c3.31,0,6.63,0,10,0,6.95.14,12.74,3,17.88,7.54,7.49,6.67,9.64,15.14,9.62,24.83q-.22,80.67,0,161.33c0,2.94-.64,6.08.42,9.27a219.23,219.23,0,0,1,55.32-35V425c-3.17-3.55-7.09-4.52-10.23-6.71-22.74-15.88-18.26-43.82-5-55.67,10.6-9.44,23.75-11.67,37.25-6.41s21.34,15.86,22.51,30.16-5.41,25.57-17.8,33.16c-2.41,1.48-5.3,2.26-7.78,5v30.34A218.62,218.62,0,0,1,671.78,444V367.41c-2.66-5.35-7.45-6.13-11-8.55-19.05-12.77-21.68-42.93-4.87-56.64,16.27-13.26,41.08-10.09,52.88,6.76,12.26,17.5,7,40-12,51.31-2.81,1.68-6.15,2.59-8.41,6.5V444a218.23,218.23,0,0,1,60.64,10.93V424.66c-.07-.28-.15-.57-.23-.84-2.85-1.64-6.18-3.24-9.18-5.32-21.86-15.14-20.08-41.26-5.73-55.59s40.27-11.52,53,4.78,8.42,39.69-9.36,51.06c-2.93,1.88-6,3.58-9.46,5.63V462.2A219,219,0,0,1,826,499.66V486.82q0-77.9,0-155.8a80.74,80.74,0,0,1,.73-13.21,28.46,28.46,0,0,1,26.81-23.58c3.31-.18,6.63-.05,9.95-.05q156.95,0,313.91,0c4.38,0,8.82.69,14-1,3.83-9.74,7.52-20.09,11.94-30.12C1209.75,248.75,1207.18,237,1195.75,226.21Z"/><path class="cls-2" d="M520.77,512.39c.09-1.33.16-2.54.16-3.75q0-90,0-180.06v-2.69a26.84,26.84,0,0,0-.16-2.83c-1.07-8.89-5.37-12.88-14.43-13.4-2.21-.13-4.42,0-6.63,0q-158.58,0-317.15,0c-3.62,0-7.36-.75-11,.91-.14,4.22,2.22,7.63,3.73,11.22,12.64,30.17,25.2,60.38,38.3,90.35,4.59,10.51,5,20.3.32,30.78q-11.19,25.17-21.48,50.75c-3.94,9.84-10.28,16.45-20.19,20.49-18.71,7.64-37.13,16-55.68,24-32,13.89-64,27.93-96.17,41.6C6.72,585.59-.6,594.86,0,610.29c.55,13.23,0,26.51.16,39.76,0,2.79-1,5.94,1.75,8.3H461A218.17,218.17,0,0,1,520.77,512.39Zm-93.53-57.82c-10.72-.26-18.84,3.25-25.15,12.68a33.42,33.42,0,0,1-36.77,14.06c-14.87-4.14-24.1-13.91-26.74-29.13s5.82-30.28,20.14-37.07,31.79-4.4,40.8,8.85c9.37,13.78,21.33,16.69,36.1,15.48,2.19-.18,4.43.06,6.62-.14,12.89-1.15,20.24-8.32,21.06-21.17a177,177,0,0,0,0-22.09c-.85-13.37-8.56-20.52-22.18-20.94-7.36-.23-14.74-.05-22.11-.05H379.22c-18.79,0-37.59.3-56.37-.12-11.23-.25-19.47,3.1-26.08,12.93-9.2,13.69-25.16,18-40,12.59-14.37-5.19-23.47-18.6-23.18-34.14.28-14.54,9-26.8,22.83-32.18a34.91,34.91,0,0,1,38.33,9.37,27.2,27.2,0,0,1,3.34,4.39c5,8.59,12.51,11.3,22.26,11.22,39.06-.32,78.12-.13,117.17-.13,3.69,0,7.37-.07,11,0a56.26,56.26,0,0,1,7.69.57c14.47,2.39,22.08,10.84,22.37,25.53s.32,29.47,0,44.2c-.35,15.91-9.72,24.88-25.93,25.27Q440,454.87,427.24,454.57Z"/><path class="cls-3" d="M532.94,660.44v-1.65h-16V846.55c-1.05,8.29-6.09,13-14.49,13.68-2.93.23-5.89.06-8.84.06H194.21c-2.58,0-5.16.06-7.74,0-7.78-.29-14.25-3-18.76-9.78a49,49,0,0,0-6.33-7.61A35.92,35.92,0,1,0,113.12,896c15.56,13.06,39.35,11.47,51-5,7.83-11.11,17.07-14.22,29.94-14.17,99.8.36,199.6.2,299.4.19,3.32,0,6.64.13,9.94-.08,16.76-1.06,27.55-10.53,29.57-25.95ZM136.37,887.56a19,19,0,0,1-19-18.81c-.14-10.33,8.33-19.28,18.43-19.47a19,19,0,0,1,19.44,18.35C155.61,878.9,147.45,887.53,136.37,887.56Z"/><path class="cls-3" d="M1252.59,846.69c-14.86-19.22-43.12-19-57.75,1.19-6.61,9.14-14.44,13.08-25.21,12.42-.37,0-.74,0-1.1,0H859.23c-1.84,0-3.69.09-5.52,0-9.67-.67-14.59-5.6-15.24-15.36v-.11h-.53v-186h-16v189h.32c0,.11,0,.22,0,.33.45,14.58,10.2,25.77,24.68,28.1a92.12,92.12,0,0,0,14.3.77q151.89.06,303.78,0c3.31,0,6.63,0,9.94.06,7.48.2,13.5,3.14,17.68,9.53a57.1,57.1,0,0,0,3.88,5.36,36,36,0,0,0,56.06-45.28Zm-28.16,41a19.1,19.1,0,0,1-19.5-18.37c-.38-10.55,8.78-20.07,19.2-20A19.23,19.23,0,0,1,1243,868.45,18.68,18.68,0,0,1,1224.43,887.65Z"/><path class="cls-3" d="M607.94,740.18V658.79h-16v81.39a8.2,8.2,0,0,1-5.21,7.62,36,36,0,1,0,26.42,0A8.21,8.21,0,0,1,607.94,740.18Zm-8,60.11a19,19,0,1,1,19-19A19,19,0,0,1,599.94,800.29Z"/><path class="cls-3" d="M765.94,746.19v-87.4h-16v87.4a36,36,0,1,0,16,0Zm-8,54.1a19,19,0,1,1,19-19A19,19,0,0,1,757.94,800.29Z"/><path class="cls-3" d="M765.94,740.18V658.79h-16v81.39a8.2,8.2,0,0,1-5.21,7.62,36,36,0,1,0,26.42,0A8.21,8.21,0,0,1,765.94,740.18Zm-8,60.11a19,19,0,1,1,19-19A19,19,0,0,1,757.94,800.29Z"/><path class="cls-3" d="M685.94,800.18V658.79h-16V800.18a8.2,8.2,0,0,1-5.21,7.62,36,36,0,1,0,26.42,0A8.21,8.21,0,0,1,685.94,800.18Zm-8,60.11a19,19,0,1,1,19-19A19,19,0,0,1,677.94,860.29Z"/><path class="cls-3" d="M1090.44,767.79A36,36,0,0,0,1057,790.58a8.21,8.21,0,0,1-7.62,5.21H903.6a7.66,7.66,0,0,1-7.66-7.66V738.44a7.65,7.65,0,0,1,7.66-7.65h40.74A8.2,8.2,0,0,1,952,736a36,36,0,0,0,36.44,22.67c16.66-1.33,31.8-16.65,33-33.33A36,36,0,0,0,952,709.58a8.21,8.21,0,0,1-7.62,5.21h-48.4a16,16,0,0,0-16,16h0v65h0a16,16,0,0,0,16,16h153.4A8.2,8.2,0,0,1,1057,817a36,36,0,0,0,36.44,22.67c16.66-1.33,31.8-16.65,32.95-33.33A36,36,0,0,0,1090.44,767.79Zm-105-64a19,19,0,1,1-19,19A19,19,0,0,1,985.44,703.79Zm105,119a19,19,0,1,1,19-19A19,19,0,0,1,1090.44,822.79Z"/><path class="cls-3" d="M232.53,806.34c1.15,16.68,16.3,32,33,33.33A36,36,0,0,0,301.93,817a8.2,8.2,0,0,1,7.62-5.21H462.94a16,16,0,0,0,16-16h0v-65h0a16,16,0,0,0-16-16H414.55a8.21,8.21,0,0,1-7.62-5.21,36,36,0,0,0-69.4,15.76c1.15,16.68,16.3,32,33,33.33A36,36,0,0,0,406.93,736a8.2,8.2,0,0,1,7.62-5.21h40.74a7.64,7.64,0,0,1,7.65,7.65v49.69a7.65,7.65,0,0,1-7.65,7.66H309.55a8.21,8.21,0,0,1-7.62-5.21,36,36,0,0,0-69.4,15.76Zm159.91-83.55a19,19,0,1,1-19-19A19,19,0,0,1,392.44,722.79Zm-143,81a19,19,0,1,1,19,19A19,19,0,0,1,249.44,803.79Z"/></g></g></svg>